<?xml version="1.0" encoding="UTF-8" standalone="no"?>
<!DOCTYPE svg PUBLIC "-//W3C//DTD SVG 1.1//EN" "http://www.w3.org/Graphics/SVG/1.1/DTD/svg11.dtd">
<svg width="100%" height="100%" viewBox="0 0 800 800" version="1.1" xmlns="http://www.w3.org/2000/svg" xmlns:xlink="http://www.w3.org/1999/xlink" xml:space="preserve" xmlns:serif="http://www.serif.com/" style="fill-rule:evenodd;clip-rule:evenodd;stroke-linejoin:round;stroke-miterlimit:2;">
    <g transform="matrix(1,0,0,1,-2463.007356,-346.39417)">
        <g transform="matrix(0.8768,0,0,0.927831,2225.00414,16.916049)">
            <rect x="143.708" y="234.394" width="1167.883" height="1103.65" style="fill:rgb(235,235,235);"/>
        </g>
        <g transform="matrix(1.212121,0,0,1.081081,-615.780523,-42.795019)">
            <path d="M2685.037,364.531C2688.587,361.588 2692.885,360 2697.299,360C2740.205,360 2973.985,360 3045.218,360C3056.604,360 3065.835,370.344 3065.843,383.109C3065.877,438.058 3065.963,576.022 3065.997,630.972C3066.004,643.737 3075.236,654.08 3086.621,654.08C3111.81,654.08 3154.18,654.08 3179.375,654.08C3190.766,654.08 3200,664.434 3200,677.205L3200,977.493C3200,984.828 3196.897,991.727 3191.637,996.088C3166.571,1016.867 3092.514,1078.26 3071.754,1095.469C3068.205,1098.412 3063.907,1100 3059.492,1100C3005.853,1100 2650.503,1100 2560.625,1100C2549.234,1100 2540,1089.647 2540,1076.875L2540,496.427C2540,489.092 2543.103,482.193 2548.363,477.832C2575.765,455.116 2662.384,383.31 2685.037,364.531Z"/>
        </g>
    </g>
</svg>
