<?xml version="1.0" encoding="UTF-8" standalone="no"?>
<!DOCTYPE svg PUBLIC "-//W3C//DTD SVG 1.1//EN" "http://www.w3.org/Graphics/SVG/1.1/DTD/svg11.dtd">
<svg width="100%" height="100%" viewBox="0 0 800 800" version="1.1" xmlns="http://www.w3.org/2000/svg" xmlns:xlink="http://www.w3.org/1999/xlink" xml:space="preserve" xmlns:serif="http://www.serif.com/" style="fill-rule:evenodd;clip-rule:evenodd;stroke-linejoin:round;stroke-miterlimit:2;">
    <g transform="matrix(1,0,0,1,-250,-340)">
        <g transform="matrix(0.8768,0,0,0.927831,17.704823,16.916049)">
            <rect x="143.708" y="234.394" width="1167.883" height="1103.65" style="fill:rgb(235,235,235);"/>
        </g>
        <g transform="matrix(0.989564,0,0,1.007448,-4.353438,-7.706049)">
            <path d="M613.481,349.997C617.829,346.84 623.094,345.136 628.501,345.136C679.922,345.136 954.894,345.136 1040.209,345.136C1054.162,345.136 1065.473,356.246 1065.473,369.951C1065.473,488.454 1065.473,995.903 1065.473,1114.406C1065.473,1128.111 1054.162,1139.221 1040.209,1139.221L282.299,1139.221C268.347,1139.221 257.036,1128.111 257.036,1114.406C257.036,1010.726 257.036,612.777 257.036,509.185C257.036,495.498 268.318,484.395 282.252,484.37C321.624,484.297 395.756,484.161 420.529,484.116C425.921,484.106 431.167,482.402 435.502,479.254C465.044,457.799 583.897,371.483 613.481,349.997Z"/>
        </g>
    </g>
</svg>
