<?xml version="1.0" encoding="UTF-8" standalone="no"?>
<!DOCTYPE svg PUBLIC "-//W3C//DTD SVG 1.1//EN" "http://www.w3.org/Graphics/SVG/1.1/DTD/svg11.dtd">
<svg width="100%" height="100%" viewBox="0 0 800 800" version="1.1" xmlns="http://www.w3.org/2000/svg" xmlns:xlink="http://www.w3.org/1999/xlink" xml:space="preserve" xmlns:serif="http://www.serif.com/" style="fill-rule:evenodd;clip-rule:evenodd;stroke-linejoin:round;stroke-miterlimit:2;">
    <g transform="matrix(1,0,0,1,-1341.839272,-1612)">
        <g transform="matrix(1.230769,0,0,1.142857,-394.905235,1142.303191)">
            <path d="M2041.764,456.988C2046.944,461.113 2050,467.639 2050,474.577L2050,1028.125C2050,1040.206 2040.906,1050 2029.688,1050L1420.312,1050C1409.094,1050 1400,1040.206 1400,1028.125L1400,371.875C1400,359.794 1409.094,350 1420.312,350C1507.579,350 1848.598,350 1900.705,350C1905.052,350 1909.285,351.502 1912.781,354.286C1934.469,371.555 2015.544,436.11 2041.764,456.988Z" style="fill:rgb(255,106,28);"/>
        </g>
        <g transform="matrix(1.230769,0,0,1.142857,-436.850982,1264.429939)">
            <path d="M2041.764,456.988C2046.944,461.113 2050,467.639 2050,474.577L2050,1028.125C2050,1040.206 2040.906,1050 2029.688,1050L1420.312,1050C1409.094,1050 1400,1040.206 1400,1028.125L1400,371.875C1400,359.794 1409.094,350 1420.312,350C1507.579,350 1848.598,350 1900.705,350C1905.052,350 1909.285,351.502 1912.781,354.286C1934.469,371.555 2015.544,436.11 2041.764,456.988Z" style="fill:rgb(255,106,28);"/>
        </g>
        <g transform="matrix(0.8768,0,0,0.927831,1103.836056,1282.521879)">
            <rect x="143.708" y="234.394" width="1167.883" height="1103.65" style="fill:rgb(235,235,235);"/>
        </g>
        <g transform="matrix(1.230769,0,0,1.142857,-381.237651,1212)">
            <path d="M2045.86,564.862C2048.546,568.669 2050,573.318 2050,578.099L2050,1028.125C2050,1040.206 2040.906,1050 2029.688,1050L1534.283,1050C1523.079,1050 1513.991,1040.231 1513.97,1028.166L1513.762,908.436C1513.754,903.768 1512.36,899.225 1509.783,895.472L1403.98,741.365C1401.395,737.6 1400,733.042 1400,728.36L1400,371.875C1400,359.794 1409.094,350 1420.312,350C1420.312,350 1815.59,350 1884.153,350C1890.501,350 1896.484,353.196 1900.325,358.639C1925.927,394.917 2024.409,534.467 2045.86,564.862Z"/>
        </g>
    </g>
</svg>
